<svg xmlns="http://www.w3.org/2000/svg" xmlns:xlink="http://www.w3.org/1999/xlink" width="208.989" height="232.689" viewBox="0 0 208.989 232.689">
  <defs>
    <linearGradient id="linear-gradient" y1="0.5" x2="1" y2="0.5" gradientUnits="objectBoundingBox">
      <stop offset="0" stop-color="#75c599"/>
      <stop offset="1" stop-color="#30a188"/>
    </linearGradient>
  </defs>
  <g id="Grupo_24" data-name="Grupo 24" transform="translate(0 0)">
    <path id="Caminho_37" data-name="Caminho 37" d="M205.968,3763.088l-11.14-8.3c-4.309-3.211-9.537-6.907-15.589-11.184-17.251-12.192-38.72-27.363-57.247-44.267-23.022-21-35.757-39.6-38.933-56.854-2.107-11.414-2.231-21.9-.366-31.172a51.986,51.986,0,0,1,10.865-23.335c10.182-12.235,26-18.972,44.549-18.972a79.586,79.586,0,0,1,36.255,8.9,64.906,64.906,0,0,1,17.717,13.351,57.216,57.216,0,0,1,14.28-10.907,60.559,60.559,0,0,1,28.755-7.166,59.723,59.723,0,0,1,37,12.417,46.89,46.89,0,0,1,18.206,35.533c1.242,34.731-21.657,58.838-45.941,85.24-12.08,13.133-25.891,26.555-34.34,43.438Z" transform="translate(-81.38 -3530.398)" fill="url(#linear-gradient)"/>
    <path id="Caminho_38" data-name="Caminho 38" d="M241.636,3543.733a23.4,23.4,0,0,0,2.405-10.554c0-10.755-6.579-19.179-14.978-19.179s-14.978,8.424-14.978,19.179a23.516,23.516,0,0,0,2.235,10.21,4.947,4.947,0,0,0-3.7,4.768v25.572a4.921,4.921,0,0,0,8.585,3.3,4.9,4.9,0,0,0,7.306,0,4.9,4.9,0,0,0,7.306,0,4.921,4.921,0,0,0,8.585-3.3v-25.572A4.942,4.942,0,0,0,241.636,3543.733ZM229.063,3523.5c2.587,0,5.48,4.14,5.48,9.681s-2.893,9.681-5.48,9.681-5.48-4.14-5.48-9.681S226.476,3523.5,229.063,3523.5Z" transform="translate(-120.511 -3514)" fill="#cb9a2c"/>
  </g>
</svg>
