<svg height="20" viewBox="0 0 20 20" width="20" xmlns="http://www.w3.org/2000/svg"><path d="m18 0c1.1045695 0 2 .8954305 2 2v16c0 1.1045695-.8954305 2-2 2h-16c-1.1045695 0-2-.8954305-2-2v-16c0-1.1045695.8954305-2 2-2zm-11.06304729 7.36366181h-2.68651488v8.63633819h2.68651488zm6.84014009-.21472564c-1.3068301 0-2.1829072.71605543-2.5417163 1.39480683h-.0364273v-1.18008119h-2.57723291v8.63633819h2.68469351v-4.2726764c0-1.1263997.2149212-2.2173152 1.6128196-2.2173152 1.3778634 0 1.3960771 1.2883539 1.3960771 2.2901036v4.199888h2.6846935v-4.7367021c0-2.32558793-.502697-4.11436173-3.2229072-4.11436173zm-8.21071802-4.14893617c-.86514886 0-1.56637478.70058791-1.56637478 1.56403975 0 .86345185.70031524 1.56494961 1.56637478 1.56494961.8633275 0 1.5654641-.70149776 1.5654641-1.56494961 0-.86254199-.7021366-1.56403975-1.5654641-1.56403975z" fill="#575757" fill-rule="evenodd"/></svg>