<svg height="232.493" viewBox="0 0 208.813 232.493" width="208.813" xmlns="http://www.w3.org/2000/svg" xmlns:xlink="http://www.w3.org/1999/xlink"><linearGradient id="a" gradientUnits="objectBoundingBox" x2="1" y1=".5" y2=".5"><stop offset="0" stop-color="#d9513c"/><stop offset="1" stop-color="#c8102e"/></linearGradient><path d="m205.863 3338.924-11.131-8.3c-4.3-3.209-9.529-6.9-15.576-11.174-17.236-12.182-38.687-27.34-57.2-44.229-23-20.985-35.727-39.568-38.9-56.807-2.105-11.4-2.229-21.884-.365-31.146a51.945 51.945 0 0 1 10.856-23.315c10.174-12.224 25.982-18.956 44.512-18.956a79.517 79.517 0 0 1 36.224 8.889 64.849 64.849 0 0 1 17.7 13.34 57.18 57.18 0 0 1 14.268-10.9 60.513 60.513 0 0 1 28.731-7.16 59.672 59.672 0 0 1 36.969 12.407 46.849 46.849 0 0 1 18.191 35.5c1.241 34.7-21.638 58.789-45.9 85.168-12.07 13.122-25.869 26.533-34.311 43.4z" fill="url(#a)" transform="translate(-81.38 -3106.431)"/><path d="m241.612 3119.708a23.379 23.379 0 0 0 2.4-10.545c0-10.746-6.573-19.163-14.965-19.163s-14.965 8.417-14.965 19.163a23.5 23.5 0 0 0 2.233 10.2 4.942 4.942 0 0 0 -3.693 4.764v25.551a4.917 4.917 0 0 0 8.578 3.293 4.892 4.892 0 0 0 7.3 0 4.892 4.892 0 0 0 7.3 0 4.917 4.917 0 0 0 8.578-3.293v-25.551a4.938 4.938 0 0 0 -2.766-4.419zm-12.562-20.219c2.585 0 5.475 4.137 5.475 9.673s-2.891 9.673-5.475 9.673-5.475-4.137-5.475-9.673 2.89-9.672 5.474-9.672z" fill="#cb9a2c" transform="translate(-120.589 -3090)"/></svg>