<svg height="20" viewBox="0 0 20 20" width="20" xmlns="http://www.w3.org/2000/svg"><path d="m17.5 100.5v-4.4824219c0-.3316406-.1316405-.6492187-.3660155-.8839843l-1.7679688-1.7675782c-.234375-.234375-.5523438-.3660156-.8839844-.3660156h-10.73203128c-.69023438 0-1.25000002.5597656-1.25000002 1.25v6.25c-1.38085937 0-2.5 1.119141-2.5 2.5v4.375c0 .345313.2796875.625.625.625h1.875v3.75c0 .690234.55976564 1.25 1.25000002 1.25h12.50000008c.6902344 0 1.2499999-.559766 1.2499999-1.25v-3.75h1.8750001c.3453125 0 .6249999-.279687.6249999-.625v-4.375c0-1.380859-1.1191405-2.5-2.5-2.5zm-2.5 10h-9.99999998v-3.75h9.99999998zm0-8.75h-9.99999998v-6.25h7.49999998v1.875c0 .3453125.2796876.625.6250001.625h1.8749999zm1.8750001 2.8125c-.5175781 0-.9375-.419922-.9375-.9375 0-.517969.4199219-.9375.9375-.9375s.9375.419531.9375.9375c0 .517578-.4199219.9375-.9375.9375z" fill="#a9a9a9" opacity=".7" transform="translate(0 -93)"/></svg>