<svg height="20" viewBox="0 0 20 20" width="20" xmlns="http://www.w3.org/2000/svg"><path d="m18 0c1.1045695 0 2 .8954305 2 2v16c0 1.1045695-.8954305 2-2 2h-16c-1.1045695 0-2-.8954305-2-2v-16c0-1.1045695.8954305-2 2-2zm-5.3075266 4.5c-1.5862467 0-2.87204342 1.24374083-2.87204342 2.77694164 0 .2176156.02584516.43002509.07430484.63254295-2.3869082-.11557574-4.50298066-1.22135453-5.92015692-2.9018884-.2466059.41024185-.38821584.88712197-.38821584 1.39680061 0 .96313124.50667282 1.81328979 1.27718165 2.31099437-.47059728-.01457712-.91373409-.13952388-1.30087304-.34724786v.03488097c0 1.34578068.98965424 2.46821902 2.3039883 2.72279802-.24068305.0635146-.49482712.0973544-.7570478.0973544-.18468521 0-.36506288-.0177008-.54005615-.0494581.36560132 1.1031757 1.42632975 1.9064792 2.68305065 1.9288655-.98265451.7449951-2.22106842 1.1890767-3.56717049 1.1890767-.23152956 0-.46036691-.0130153-.68543518-.0390459 1.2712588.7876852 2.78050844 1.2473851 4.40283066 1.2473851 5.28318144 0 8.17137804-4.2315301 8.17137804-7.90132046 0-.12026125-.0026922-.24000189-.0080766-.35922192.5615938-.39202045 1.0488827-.88087463 1.4338679-1.4374083-.5152879.22125988-1.068805.37015476-1.6497827.43731364.5933618-.34360358 1.0483443-.88764258 1.2626437-1.53632448-.554594.31809361-1.1694934.54924511-1.8242375.67419187-.5239029-.53987411-1.2701819-.87723035-2.0961501-.87723035z" fill="#575757" fill-rule="evenodd"/></svg>